PathFileType	4	(X/Y/Z)	./resultDataOpenSim/trcMotMarkerGrf/sub09/qtm-05-06.trc
DataRate	CameraRate	NumFrames	NumMarkers	Units	OrigDataRate	OrigDataStartFrame	OrigNumFrames
250.000000	250.000000	15	24	m	250.000000	1	509
Frame#	Time	L.Toe.Tip			R.Toe.Tip			L.Ankle.Lat			R.Ankle.Lat			L.Ankle.Med			R.Ankle.Med			L.Heel			R.Heel			L.Knee.Lat			R.Knee.Lat			L.Knee.Med			R.Knee.Med			L.Thigh.Upper			R.Thigh.Upper			L.ASIS			R.ASIS			V.Sacral			L.Acromium			R.Acromium			C7			L.Elbow			R.Elbow			L.Wrist.Lat			R.Wrist.Lat
		X1	Y1	Z1	X2	Y2	Z2	X3	Y3	Z3	X4	Y4	Z4	X5	Y5	Z5	X6	Y6	Z6	X7	Y7	Z7	X8	Y8	Z8	X9	Y9	Z9	X10	Y10	Z10	X11	Y11	Z11	X12	Y12	Z12	X13	Y13	Z13	X14	Y14	Z14	X15	Y15	Z15	X16	Y16	Z16	X17	Y17	Z17	X18	Y18	Z18	X19	Y19	Z19	X20	Y20	Z20	X21	Y21	Z21	X22	Y22	Z22	X23	Y23	Z23	X24	Y24	Z24

1	0	-1.4850156	0.03715877	-0.018213405	-0.9191666	0.094810138	0.11415841	-1.6359447	0.08000896	-0.04967222	-1.0700728	0.073449739	0.13476539	-1.6083286	0.09529253	0.043327302	-1.0542327	0.11657609	0.047318799	NaN	NaN	NaN	-1.1189186	0.034208833	0.076083036	-1.4912696	0.47152371	-0.11455768	-1.1454815	0.52637086	0.17911314	-1.4897418	0.47279973	0.011717626	-1.1412296	0.50705595	0.051923561	-1.3792917	0.87839591	-0.1611876	-1.3539159	0.87523298	0.20948678	-1.2744182	0.95086779	-0.10595823	-1.2713951	0.95784327	0.13395006	-1.4365766	1.017439	0.02167326	-1.2456244	1.4075646	-0.14410747	-1.2894103	1.419405	0.1810188	-1.329766	1.4655644	0.0135671	-1.3434137	1.0453507	-0.23440017	-1.477348	1.1131385	0.25697565	-1.0905089	0.93951424	-0.20976818	-1.3995011	0.85235075	0.28976371
2	0.004	-1.4849599	0.037090932	-0.018213613	-0.90323029	0.098889057	0.11495507	-1.6356469	0.080620776	-0.049559291	-1.0537371	0.073735544	0.13495309	-1.6075108	0.096026019	0.043103867	-1.0384438	0.11743318	0.047555638	NaN	NaN	NaN	-1.1012805	0.033447404	0.076054376	-1.4885506	0.47136291	-0.11455625	-1.1423106	0.52417888	0.17873701	-1.4865257	0.47264039	0.011705056	-1.1351251	0.50553846	0.051953726	-1.3738856	0.87720642	-0.16092337	-1.3484475	0.87365563	0.20966997	-1.2685771	0.94954946	-0.10576718	-1.2654071	0.95648177	0.13410832	-1.4307435	1.0158879	0.021992988	-1.2400212	1.4062509	-0.14375103	-1.2840478	1.4179588	0.1813467	-1.3243489	1.4641436	0.013430893	-1.3365899	1.0435661	-0.23403778	-1.4714731	1.1111308	0.25733413	-1.0829396	0.93976077	-0.20932453	-1.3944722	0.85080892	0.29013131
3	0.008	-1.4849027	0.037007917	-0.018216113	-0.88754146	0.10301258	0.11571419	-1.6353342	0.081249606	-0.049482614	-1.037594	0.074134456	0.13514375	-1.6067596	0.096710648	0.042946147	-1.0228679	0.1183702	0.047810716	NaN	NaN	NaN	-1.0837503	0.032846037	0.076111519	-1.4856218	0.47117675	-0.11452034	-1.1381263	0.52221325	0.17847669	-1.4833605	0.47245775	0.011716719	-1.1288301	0.50403628	0.051975786	-1.36847	0.87599214	-0.16060177	-1.3427533	0.8720904	0.20988247	-1.262821	0.94821032	-0.10561158	-1.2594241	0.95510973	0.13426921	-1.4249285	1.0143226	0.022236955	-1.2343737	1.4049381	-0.14342043	-1.2785868	1.4165005	0.18167677	-1.3188613	1.4627615	0.013434982	-1.3297714	1.0418044	-0.23365719	-1.4655892	1.109198	0.25771829	-1.0753728	0.93993945	-0.20889322	-1.3893656	0.84925147	0.29051047
4	0.012	-1.4848451	0.036916029	-0.018219567	-0.87225877	0.1071799	0.1164184	-1.6349817	0.081909656	-0.049470923	-1.0216486	0.074768476	0.13536705	-1.6060955	0.097327849	0.042855119	-1.0076591	0.11942102	0.048085699	NaN	NaN	NaN	-1.0664553	0.032432569	0.076349237	-1.482419	0.47096491	-0.11446108	-1.1327877	0.52049787	0.17837023	-1.4801644	0.47224241	0.011755353	-1.1223054	0.5025574	0.051977785	-1.3630352	0.87475058	-0.16019411	-1.3367956	0.8705235	0.21012462	-1.2571678	0.94682694	-0.10552632	-1.2534278	0.95373091	0.13444056	-1.4191128	1.0127285	0.022447127	-1.2286669	1.4036197	-0.14310743	-1.2730118	1.4150248	0.18201673	-1.3131737	1.4614356	0.013864494	-1.3229635	1.0400682	-0.23327693	-1.4597173	1.1073774	0.25799055	-1.0678226	0.94002068	-0.20849101	-1.3841379	0.84767123	0.29089591
5	0.016	-1.4847878	0.036826647	-0.018221805	-0.85747485	0.11133528	0.11706033	-1.6345653	0.082613673	-0.049539973	-1.005711	0.075784601	0.13569801	-1.6055057	0.09789599	0.042776943	-0.99297017	0.12055628	0.048348317	NaN	NaN	NaN	-1.0496469	0.03213281	0.076839684	-1.4789672	0.47073666	-0.11440984	-1.1267605	0.51893432	0.17838645	-1.4768236	0.47199812	0.011805824	-1.115722	0.5011004	0.051947341	-1.3575768	0.87349721	-0.15972715	-1.3306661	0.86893648	0.2103841	-1.2515566	0.9454031	-0.10551059	-1.2473884	0.952356	0.13462572	-1.4132645	1.0110901	0.022726865	-1.2229203	1.4022893	-0.14278022	-1.2673601	1.4135358	0.18236728	-1.3072123	1.4601566	0.014900875	-1.3161818	1.0383553	-0.23292112	-1.453861	1.1056204	0.258015	-1.0603214	0.94000929	-0.20812197	-1.378821	0.84606947	0.2912783
6	0.02	-1.4847274	0.036744161	-0.018225116	-0.84322077	0.11540978	0.11762118	-1.634082	0.083364716	-0.049691111	-0.98959352	0.077278104	0.13620669	-1.6049613	0.09846297	0.042657167	-0.97887027	0.12172597	0.048558868	NaN	NaN	NaN	-1.0335639	0.03191669	0.077519037	-1.4753212	0.47047397	-0.11438862	-1.120451	0.51744491	0.17847448	-1.4733267	0.4717225	0.01186468	-1.1092677	0.49966023	0.051881657	-1.3520809	0.87224596	-0.15925976	-1.3244355	0.86732062	0.21065474	-1.245892	0.94397777	-0.10552358	-1.2412826	0.95098946	0.13482456	-1.4073517	1.0094111	0.023128807	-1.2171477	1.4009447	-0.14242405	-1.26165	1.4120389	0.1827164	-1.3010769	1.4588899	0.016290103	-1.3094293	1.0366656	-0.23258101	-1.4479562	1.1038258	0.2577827	-1.052886	0.9399219	-0.20777869	-1.3735146	0.8444406	0.29165651
7	0.024	-1.4846609	0.036670983	-0.018234593	-0.8295002	0.1193419	0.11807051	-1.6335527	0.084152461	-0.049910898	-0.97355565	0.079083076	0.13682682	-1.6044209	0.099077767	0.042476652	-0.96525633	0.12291952	0.048724187	NaN	NaN	NaN	-1.0182553	0.031841827	0.078157562	-1.4715126	0.47013809	-0.11440028	-1.1140347	0.51600362	0.17859294	-1.469741	0.47139424	0.011949367	-1.1029693	0.49824278	0.051790064	-1.3465335	0.87100001	-0.15882083	-1.3181168	0.86567996	0.2109324	-1.2401266	0.94258932	-0.10552683	-1.2351077	0.94963481	0.1350406	-1.4013596	1.0077305	0.023630047	-1.2113416	1.3995914	-0.1420539	-1.2558896	1.4105384	0.183053	-1.2949739	1.4576026	0.0175096	-1.3026935	1.0349923	-0.23220954	-1.441933	1.1019391	0.25735621	-1.045514	0.9397709	-0.20746174	-1.3683155	0.84277776	0.29202863
8	0.028	-1.4845885	0.036605816	-0.018251883	-0.81631507	0.12307375	0.11839004	-1.6329997	0.084975798	-0.050175576	-0.95829111	0.080795206	0.13735259	-1.6038515	0.099754468	0.042247298	-0.95200204	0.12415125	0.048875658	NaN	NaN	NaN	-1.0036557	0.031953096	0.078532208	-1.4674411	0.46971885	-0.11442405	-1.1075849	0.51460999	0.17872024	-1.4660826	0.47099175	0.012063444	-1.096738	0.49686875	0.051690064	-1.3409295	0.86975581	-0.15839262	-1.3116744	0.86403227	0.21121857	-1.2342666	0.94124332	-0.10550788	-1.2288619	0.94829689	0.13527544	-1.3952999	1.0060863	0.024167214	-1.2054715	1.3982403	-0.14168667	-1.2500894	1.4090392	0.18338237	-1.2890177	1.4562889	0.018274555	-1.2959621	1.0333253	-0.23175152	-1.435801	1.0999988	0.25685145	-1.0381981	0.93955511	-0.20717516	-1.3631974	0.84109067	0.29238607
9	0.032	-1.4845124	0.036543399	-0.018274769	-0.80367265	0.12654502	0.11859093	-1.6324269	0.08585122	-0.050468207	-0.94426742	0.082131571	0.13763115	-1.603244	0.10047133	0.04198138	-0.93918365	0.12538897	0.048994721	NaN	NaN	NaN	-0.98974082	0.032215106	0.078583988	-1.4629487	0.46925309	-0.11443494	-1.1011184	0.51327255	0.17886426	-1.4622578	0.47052622	0.012174451	-1.0904898	0.49556281	0.051602008	-1.335269	0.86851496	-0.15794717	-1.3050717	0.8623954	0.21152331	-1.2283276	0.93992305	-0.10547276	-1.2225465	0.94697621	0.13552325	-1.3891932	1.0044825	0.024679729	-1.1995055	1.3969009	-0.14132334	-1.2442476	1.4075466	0.18371866	-1.2831693	1.4549597	0.018689025	-1.2892402	1.0316697	-0.23120278	-1.4296465	1.0980952	0.25641906	-1.0309382	0.93926048	-0.20691145	-1.3579947	0.83940646	0.29272358
10	0.036	-1.4844313	0.036482317	-0.018302281	-0.79158539	0.12969751	0.118703	-1.6318217	0.086786723	-0.050798662	-0.93138781	0.08311081	0.13766695	-1.602599	0.10121092	0.041674215	-0.92698134	0.12655839	0.049021539	NaN	NaN	NaN	-0.97649961	0.032543989	0.078417095	-1.4580867	0.46877695	-0.11442573	-1.0944962	0.51202554	0.17906325	-1.4581449	0.47003452	0.012244658	-1.0841819	0.49434472	0.051537503	-1.3295492	0.8672874	-0.15747089	-1.2983255	0.86077314	0.2118534	-1.2223221	0.93861561	-0.10543409	-1.2161894	0.94566789	0.13577486	-1.3830509	1.0029069	0.025140487	-1.1934496	1.3955785	-0.14095835	-1.2383444	1.4060664	0.18406594	-1.2773393	1.4536248	0.018980679	-1.2825487	1.0300463	-0.23062212	-1.423535	1.0962874	0.2561462	-1.0237426	0.93887409	-0.20665916	-1.3525429	0.83775019	0.29304978
11	0.04	-1.4843411	0.036427181	-0.018336101	-0.78007097	0.13248855	0.11874594	-1.6311681	0.087774196	-0.051196357	-0.91934494	0.083866955	0.13752028	-1.6019101	0.1019891	0.041320169	-0.91544853	0.1276058	0.048920322	NaN	NaN	NaN	-0.96385296	0.032868621	0.078192679	-1.4531512	0.46828017	-0.11439606	-1.0874328	0.51093435	0.1793705	-1.4537186	0.46953093	0.012265461	-1.077795	0.49323362	0.051495065	-1.3237605	0.86608294	-0.15696313	-1.2914838	0.85916224	0.21220717	-1.2162583	0.93731976	-0.10539997	-1.2098266	0.94436686	0.13602273	-1.3768766	1.0013574	0.025560904	-1.1873505	1.3942756	-0.14058851	-1.2323672	1.404605	0.18441677	-1.2714743	1.452292	0.019286649	-1.2759027	1.0284726	-0.23006534	-1.417455	1.0945712	0.25601556	-1.0166222	0.93840221	-0.20641895	-1.3467802	0.83613362	0.29338149
12	0.044	-1.4842375	0.036381521	-0.018377299	-0.76915475	0.13490164	0.11870336	-1.6304621	0.088816847	-0.051677098	-0.90801117	0.084448367	0.13719243	-1.6011666	0.10283502	0.040923955	-0.90452604	0.12850814	0.048695754	NaN	NaN	NaN	-0.95168527	0.033178171	0.07795931	-1.4483557	0.46773346	-0.11434164	-1.0797655	0.51003474	0.1798211	-1.4490605	0.46899621	0.012258068	-1.0713101	0.49224809	0.051470522	-1.3178898	0.86490429	-0.15643031	-1.2845707	0.85756566	0.21258054	-1.2101327	0.9360383	-0.10536836	-1.2034637	0.94307557	0.13626515	-1.3706718	0.99984379	0.02598171	-1.1812489	1.3929931	-0.14021087	-1.2263371	1.4031679	0.18476428	-1.2655632	1.4509713	0.01964147	-1.2692977	1.0269481	-0.22952549	-1.4113593	1.0929128	0.25596703	-1.0095902	0.93786868	-0.20619797	-1.3407352	0.83455881	0.29372845
13	0.048	-1.4841192	0.036342777	-0.01842499	-0.75886752	0.13693502	0.11853086	-1.6297174	0.089936005	-0.052225555	-0.89748351	0.084795581	0.13662624	-1.6003676	0.10375622	0.040483913	-0.89416143	0.12925076	0.048370566	NaN	NaN	NaN	-0.93996041	0.033510688	0.077576463	-1.4436301	0.46713326	-0.11427265	-1.0717475	0.50925518	0.18036853	-1.4442458	0.46841793	0.012254146	-1.0646969	0.49139915	0.051463492	-1.3119283	0.86374718	-0.15588192	-1.2775715	0.85599591	0.21297565	-1.2039331	0.93477401	-0.10532942	-1.1970748	0.9418051	0.1365089	-1.364438	0.99837059	0.026443814	-1.1751511	1.3917304	-0.13982294	-1.220288	1.4017591	0.18511038	-1.259612	1.4496718	0.020035263	-1.2627182	1.0254622	-0.22895262	-1.4052144	1.0912857	0.25595679	-1.0026612	0.9372915	-0.20599246	-1.3344888	0.83301866	0.29408702
14	0.052	-1.4839879	0.036305755	-0.018477275	-0.74923109	0.13856894	0.11820501	-1.6289478	0.091146597	-0.052817873	-0.88787358	0.084838258	0.13580112	-1.5995237	0.10474247	0.039983586	-0.88434685	0.1298206	0.047964719	NaN	NaN	NaN	-0.9288225	0.033851238	0.076880564	-1.438805	0.46649099	-0.11421676	-1.0638998	0.50845908	0.18087999	-1.4392717	0.46780508	0.012269668	-1.0579156	0.49068754	0.05147226	-1.3058709	0.86260398	-0.155326	-1.2704705	0.85446763	0.21340368	-1.1976502	0.93353044	-0.10526966	-1.1906293	0.94056633	0.1367676	-1.3581738	0.9969281	0.026954652	-1.1690484	1.3904863	-0.13942649	-1.2142277	1.4003793	0.18546177	-1.2536266	1.4483947	0.02045477	-1.2561586	1.0240119	-0.22832571	-1.3990103	1.0896845	0.25597	-0.99583657	0.93666875	-0.20578653	-1.3281359	0.8315012	0.29444724
15	0.056	-1.4838461	0.036268449	-0.018531948	-0.74024851	0.13975442	0.11775254	-1.6281436	0.092446723	-0.05345554	-0.87909417	0.084591378	0.13481019	-1.5986447	0.10579219	0.039411714	-0.87511719	0.13020182	0.047484496	NaN	NaN	NaN	-0.91854699	0.034063429	0.075895722	-1.4338132	0.46581151	-0.11418847	-1.0564479	0.50760512	0.18125719	-1.4341011	0.46716084	0.01229198	-1.0509284	0.49010467	0.051487328	-1.2997115	0.8614689	-0.15476814	-1.263289	0.85299091	0.21387497	-1.1912772	0.93230801	-0.10517704	-1.1841167	0.93936411	0.13705368	-1.3518664	0.99550533	0.027495605	-1.1629379	1.3892606	-0.13902472	-1.2081421	1.3990253	0.18582311	-1.2476084	1.4471375	0.0208961	-1.2496313	1.0226058	-0.22768209	-1.3927499	1.0881124	0.25600765	-0.9890749	0.93598695	-0.20556116	-1.321747	0.82999992	0.29480232
